<svg id="Layer_1" data-name="Layer 1" xmlns="http://www.w3.org/2000/svg" viewBox="0 0 30 30"><defs><style>.cls-1{fill:#fff;}</style></defs><title>Иконки</title><path class="cls-1" d="M13.26,21.07a8.21,8.21,0,0,1,.21-2.62,1.14,1.14,0,0,0-.33-1.11l-1.38-1.53A9.18,9.18,0,0,1,15.5,11.4l1.7,1.08a1.16,1.16,0,0,0,1.19.18A8.21,8.21,0,0,1,20.94,12a1.15,1.15,0,0,0,1-1.23l-.22-2.66A1.14,1.14,0,0,0,20.54,7.1,13.35,13.35,0,0,0,8.34,21.47a1.14,1.14,0,0,0,1.23,1.05l2.65-.22A1.13,1.13,0,0,0,13.26,21.07Z"/><path class="cls-1" d="M15,30A15,15,0,1,1,30,15,15,15,0,0,1,15,30ZM15,1A14,14,0,1,0,29,15,14,14,0,0,0,15,1Z"/></svg>